<?xml version="1.0" encoding="utf-8"?>
<!-- Svg Vector Icons : http://www.onlinewebfonts.com/icon -->
<!DOCTYPE svg PUBLIC "-//W3C//DTD SVG 1.1//EN" "http://www.w3.org/Graphics/SVG/1.1/DTD/svg11.dtd">
<svg version="1.1" xmlns="http://www.w3.org/2000/svg" xmlns:xlink="http://www.w3.org/1999/xlink" x="0px" y="0px" viewBox="0 0 1000 1000" enable-background="new 0 0 1000 1000" xml:space="preserve">
<metadata> Svg Vector Icons : http://www.onlinewebfonts.com/icon </metadata>
<g><g transform="translate(0.000000,511.000000) scale(0.100000,-0.100000)"><path d="M4511.5,4680.4c-145.5-70.8-323.6-199.1-536.1-386.8c-72.8-65.1-185.7-157-248.9-204.9c-469.1-360-857.8-1049.3-1185.2-2102.4c-99.6-323.6-317.9-1150.7-375.3-1416.9C2035.8-45.1,2079.8-389.7,2311.5-564c206.8-157,731.4-396.3,1095.2-501.7c467.2-134,775.5-166.6,1617.9-170.4c574.4-3.8,647.2,0,750.6,32.5c97.7,30.6,185.7,36.4,574.4,40.2l459.5,3.8l172.3,61.3c329.3,118.7,599.3,285.3,815.7,499.7c105.3,103.4,153.2,164.7,168.5,220.2c47.9,170.4,9.6,1539.4-46,1729c-44,147.4-157,264.2-292.9,302.5c-195.3,57.4-419.3,9.6-940.1-197.2c-404-160.8-448-166.6-584-76.6c-147.4,97.7-310.2,176.2-471,227.9c-120.6,36.4-183.8,44-392.5,44c-229.8-1.9-262.3-5.7-428.9-63.2c-195.3-68.9-367.6-160.8-499.8-270c-47.9-40.2-95.7-76.6-105.3-82.3c-13.4-7.7-13.4,53.6-1.9,181.9c15.3,172.3,7.6,518.9-32.6,1554.8l-3.8,74.7l134,23c74.7,11.5,174.3,38.3,224,61.3c47.9,21.1,168.5,57.4,268.1,80.4c463.4,107.2,628,187.6,815.7,390.6c128.3,141.7,166.6,225.9,166.6,369.5c0,99.6-9.6,130.2-57.4,199.1c-72.8,103.4-247,220.2-469.1,315.9c-101.5,44-218.3,113-281.5,166.6c-101.5,84.3-116.8,90-216.4,90C4670.4,4743.6,4613,4728.3,4511.5,4680.4z M5401.8,1090.3c164.7-44,358.1-153.2,494-281.5L6005,703.6L5756.1,828c-501.7,250.8-672.1,239.3-1225.4-93.8c-32.6-19.2-1.9,17.2,70.8,88.1c185.7,178.1,427,298.7,608.9,300.6C5246.8,1122.9,5332.9,1107.6,5401.8,1090.3z"/><path d="M1740.9-1760.7c-19.2-5.7-155.1-176.2-302.5-381l-270-371.5H664.9c-463.4,0-505.5-1.9-534.2-34.5c-42.1-46-40.2-67,1.9-105.3c30.6-28.7,99.6-32.6,562.9-32.6c291,0,541.9,5.7,559.1,11.5c15.3,5.8,126.4,145.5,245.1,310.2c118.7,164.7,218.3,287.2,220.2,271.9c3.8-15.3,40.2-243.2,82.3-505.5c61.3-394.4,82.3-484.4,114.9-517c36.4-36.4,42.1-38.3,88.1-11.5c28.7,17.2,126.4,164.7,245.1,369.5l199.1,340.8l55.5-149.3c30.6-82.3,86.2-229.8,122.5-327.4c105.3-291,166.6-289.1,331.2,5.7l111,201H3602c292.9,0,547.6,5.7,562.9,11.5c17.2,7.7,128.3,145.5,245.1,308.3c118.7,164.7,216.4,291,220.2,281.5c1.9-9.6,40.2-237.4,82.3-505.5c61.3-388.7,84.3-495.9,114.9-524.6c68.9-68.9,114.9-21.1,325.5,340.8c107.2,185.7,201,337,208.7,337c5.7,0,63.2-141.7,126.4-315.9c118.7-327.4,151.3-373.4,235.5-346.6c24.9,9.6,78.5,86.2,147.4,214.4l107.2,199.1h628c472.9,0,633.8,5.7,654.8,23c17.2,13.4,118.7,147.4,226,298.7c107.2,149.3,202.9,271.9,208.7,271.9c7.7,0,47.9-220.2,90-488.3c63.2-419.3,80.4-494,116.8-528.5c72.8-68.9,114.9-24.9,331.3,346.6c111.1,189.6,202.9,340.8,204.9,338.9c1.9-1.9,55.5-147.4,122.5-323.6c65.1-176.2,132.1-331.2,147.4-344.6c61.3-49.8,124.5,5.7,235.5,204.9l107.2,191.5l390.6,5.7c329.3,3.8,396.3,9.6,425.1,36.4c44,38.3,44,68.9,0,107.2c-30.6,28.7-91.9,32.5-465.3,32.5c-235.5,0-438.5-7.7-450-15.3c-11.5-7.7-53.6-72.8-93.8-143.6c-38.3-70.8-76.6-124.5-82.3-118.7c-7.7,5.7-65.1,151.3-128.3,321.7c-103.4,277.6-120.6,312.1-170.4,329.3c-70.8,24.9-90,0-298.7-358.1c-90-155.1-168.5-275.7-174.2-268.1c-5.8,7.7-44.1,218.3-82.3,469.1c-38.3,250.8-76.6,469.1-82.3,484.4c-15.3,42.1-67,63.2-113,46c-23-9.6-157-174.2-294.9-367.6c-139.8-193.4-264.2-356.1-275.7-365.7c-11.5-7.7-224-9.6-471-3.8c-247,5.7-532.3,3.8-631.9-3.8l-181.9-15.3l-76.6-137.9c-42.1-76.6-80.4-139.8-86.2-139.8s-61.3,137.9-124.5,308.3c-178.1,476.8-195.3,478.7-459.5,26.8c-103.4-174.2-189.5-314-193.4-310.2c-3.8,3.8-42.1,222.1-82.3,484.4c-65.1,405.9-82.3,480.6-116.8,509.3c-26.8,21.1-53.6,26.8-78.5,19.2c-21.1-9.6-157-178.1-302.5-377.2l-262.3-363.8l-497.8,5.7c-271.9,1.9-526.5-1.9-562.9-11.5c-53.6-11.5-78.5-34.5-128.3-118.7c-116.8-202.9-99.6-212.5-224,126.4c-180,488.3-199.1,490.2-467.2,30.6c-99.6-170.4-185.7-308.3-189.6-302.5c-3.8,3.8-42.1,220.2-84.2,480.6c-40.2,260.4-78.5,480.6-86.2,490.2C1830.9-1774.1,1775.4-1753,1740.9-1760.7z"/><path d="M2782.5-3600.7c-17.2-17.2-88.1-111.1-155.1-204.9c-203-285.3-149.4-258.5-528.5-258.5c-304.4,0-331.2-1.9-363.8-38.3s-32.6-40.2,0-76.6c34.5-36.4,55.5-38.3,419.3-34.5l384.8,5.7l120.6,162.8c67,90,126.4,164.7,136,168.5c7.6,1.9,34.5-128.3,59.3-292.9c32.6-220.2,53.6-304.5,78.5-327.4c67-61.3,114.9-21.1,245.1,204.9l124.5,214.4l61.3-160.8c34.5-88.1,63.2-170.4,63.2-181.9c1.9-11.5,19.1-36.4,40.2-55.5c63.2-57.4,118.7-24.9,193.4,109.1l65.1,120.6l296.8,11.5c162.7,7.7,333.2,13.4,379.1,15.3c78.5,1.9,84.3,5.7,208.7,176.1c68.9,93.8,132.1,166.6,139.8,157c7.7-7.6,32.6-139.8,55.5-292.9c42.1-279.5,67-344.6,135.9-344.6c44,0,72.8,36.4,201,256.6l111.1,191.5l65.1-181.9c107.2-296.8,176.2-321.7,292.9-103.4c70.8,132.1,99.6,153.2,181.9,132.1c26.8-5.8,206.8-5.8,400.2,1.9l352.3,13.4l130.2,181.9l132.1,183.8l49.8-310.2c53.6-333.1,72.8-379.1,157-358c34.5,7.6,74.7,59.3,147.4,187.6c158.9,277.6,137.9,273.8,220.2,55.5c38.3-105.3,82.3-202.9,97.6-214.4c53.6-44.1,116.8-1.9,193.4,130.2l74.7,130.2l264.2,9.6c222.1,7.7,270,15.3,287.2,42.1c15.3,24.9,11.5,42.1-15.3,70.8c-34.5,38.3-57.4,40.2-338.9,40.2h-300.6l-47.9-80.4l-47.9-82.3l-21.1,47.9c-11.5,26.8-44,111.1-72.8,189.6c-93.8,248.9-149.3,243.1-312.1-36.4c-53.6-95.7-101.5-172.3-105.3-168.5c-3.8,3.8-24.9,130.2-47.9,283.4c-65.1,438.5-111.1,450-369.5,91.9l-166.6-235.5h-423.1c-469.1,0-417.4,13.4-517-126.4c-28.7-42.1-30.6-36.4-93.8,134c-109.1,306.3-164.7,312.1-327.4,30.6c-55.5-99.6-105.3-176.2-111.1-172.3c-3.8,5.7-26.8,134-51.7,289.1c-24.9,153.2-55.5,291-67,306.4c-13.4,15.3-46,26.8-72.8,23c-36.4-3.8-88.1-59.3-222.1-245.1l-174.2-239.3l-315.9,5.7c-388.7,5.7-436.5-3.8-486.3-97.6c-21.1-38.3-42.1-70.8-47.9-70.8c-5.7,0-40.2,80.4-74.7,178.1c-109.1,298.7-164.7,302.5-327.4,21.1c-120.6-210.6-109.1-220.2-162.7,137.8c-17.2,124.5-45.9,247-59.4,271.9C2887.8-3558.6,2830.4-3552.9,2782.5-3600.7z"/></g></g>
</svg>