<svg id="Layer_1" enable-background="new 0 0 512 512" height="512" viewBox="0 0 512 512" width="512" xmlns="http://www.w3.org/2000/svg"><g><path d="m111.068 375.858c-2.827-1.994-6.263-2.489-9.396-1.374l-14.466 5.09c-.493-6.03-5.549-10.787-11.703-10.787h-34.367v-287.73h34.368c6.155 0 11.211-4.77 11.703-10.815l14.44 5.081c1.114.396 2.261.592 3.404.592 2.106 0 4.196-.664 6.029-1.957 3.247-2.291 5.345-6.397 5.345-10.462v-38.463c0-4.061-2.102-8.167-5.354-10.461-2.826-1.995-6.261-2.492-9.397-1.376l-14.466 5.09c-.495-6.028-5.55-10.786-11.705-10.786h-63.751c-6.48 0-11.752 5.271-11.752 11.751v50.025c0 6.496 5.272 11.78 11.752 11.78h14.384v287.73h-14.384c-6.48.001-11.752 5.273-11.752 11.753v50.054c0 6.479 5.272 11.751 11.752 11.751h14.384v31.228h-15.631c-4.142 0-7.5 3.357-7.5 7.5s3.358 7.5 7.5 7.5h46.261c4.142 0 7.5-3.357 7.5-7.5s-3.358-7.5-7.5-7.5h-15.63v-31.228h34.368c6.154 0 11.21-4.758 11.703-10.787l14.51 5.105c1.084.374 2.199.559 3.31.559 2.129 0 4.241-.678 6.087-1.993 3.226-2.3 5.311-6.4 5.311-10.445v-38.461c-.001-4.062-2.103-8.169-5.357-10.464zm-9.644-316.515-14.168-4.985v-20.187l14.168-4.985zm-86.424-36.843h57.255v43.557h-57.255zm57.255 404.844h-57.255v-43.557h57.255zm29.169-6.686-14.168-4.985v-20.214l14.168-4.985z"/><path d="m286.12 373.931c1.089.555 2.25.817 3.394.817 2.732 0 5.367-1.499 6.691-4.102l.029-.057c1.878-3.692.393-8.18-3.299-10.057-3.693-1.881-8.222-.379-10.1 3.313-1.878 3.693-.408 8.209 3.285 10.086z"/><path d="m284.245 407.744c-2.929 2.93-2.929 7.678 0 10.607 1.464 1.464 3.384 2.196 5.303 2.196s3.839-.732 5.303-2.196l.028-.028c2.929-2.93 2.915-7.664-.014-10.593s-7.692-2.916-10.62.014z"/><path d="m222.787 360.51c-3.706-1.854-8.224-.322-10.076 3.382-1.853 3.705-.351 8.21 3.354 10.063 1.077.539 2.221.794 3.348.794 2.751 0 5.4-1.52 6.714-4.147l.028-.057c1.853-3.706.337-8.183-3.368-10.035z"/><path d="m214.144 407.744c-2.929 2.93-2.929 7.678 0 10.607 1.464 1.464 3.384 2.196 5.303 2.196s3.839-.732 5.303-2.196l.028-.028c2.929-2.93 2.915-7.664-.014-10.593s-7.692-2.916-10.62.014z"/><path d="m413.284 270.722c2.78.612 5.453.898 8.009.898 15.583 0 26.75-10.635 30.261-22.815 4.329-15.021-2.232-35.214-26.868-44.051l-17.444-6.255-60.276-23.605c-10.938-4.491-15.064-4.492-24.988-4.479l-26.272.001c16.792-14.151 28.612-34.8 28.612-53.096v-11.46h1.483c7.11 0 12.89-5.78 12.89-12.89v-5.31h3.526c12.42 0 22.524-10.104 22.524-22.521v-44.924c0-4.143-3.358-7.5-7.5-7.5s-7.5 3.357-7.5 7.5v44.924c0 4.077-3.445 7.521-7.524 7.521h-3.526v-5.31c0-7.09-5.78-12.86-12.89-12.86h-3.19c-4.53-18.56-17.91-33.43-37.66-41.16-24.38-9.52-51.81-5.34-67.89 10.06-10.42 1.7-24.37 8.4-29.63 31.1h-6.14c-7.1 0-12.88 5.77-12.88 12.86v25.62c0 7.11 5.78 12.89 12.88 12.89h4.04v11.458c0 18.295 11.83 38.947 28.627 53.096l-26.996-.001c-9.915.014-14.021-.011-24.958 4.479l-60.322 23.611-17.428 6.249c-24.635 8.837-31.196 29.029-26.868 44.051 3.511 12.183 14.676 22.815 30.259 22.815 2.554 0 5.229-.285 8.005-.896l16.568-3.635 64.665-7.739v77.881 39.652c0 4.143 3.358 7.5 7.5 7.5s7.5-3.357 7.5-7.5v-32.151h55.101v96.615h-55.101v-29.828c0-4.143-3.358-7.5-7.5-7.5s-7.5 3.357-7.5 7.5v52.888c0 22.108 17.976 40.095 40.07 40.095h4.932c13.421 0 25.314-6.634 32.596-16.787 7.277 10.153 19.162 16.787 32.573 16.787h4.96c22.095 0 40.07-17.986 40.07-40.095v-127.175-53.284-24.596l64.637 7.739zm-2.374-54.973 8.711 3.124c16.688 5.986 19.867 17.628 17.519 25.778-2.153 7.473-9.371 13.903-20.636 11.42l-10.256-2.25zm-318.481 40.324c-11.262 2.478-18.477-3.949-20.63-11.422-2.349-8.15.83-19.792 17.518-25.778l8.711-3.124 4.154 33.92.508 4.152zm154.554 208.332c0 13.837-11.259 25.095-25.099 25.095h-4.932c-13.824 0-25.07-11.258-25.07-25.095v-8.06h55.101zm-25.743-426.435c1.86-.16 3.59-1.01 4.85-2.38 11.64-12.62 33.6-16.02 53.39-8.28 7.17 2.8 21.94 10.43 27.58 27.18h-104.14c3.19-10.19 9.31-15.72 18.32-16.52zm-20.91 79.348v-11.458h39.41c4.15 0 7.5-3.36 7.5-7.5 0-4.15-3.35-7.5-7.5-7.5h-56.33v-21.37h17.05 123.23v21.37h-51.32c-4.14 0-7.5 3.35-7.5 7.5 0 4.14 3.36 7.5 7.5 7.5h36.947v11.458c0 19.809-19.422 44.374-41.586 52.579-4.825 1.804-8.927 2.644-12.908 2.644-3.961 0-8.054-.84-12.902-2.651-22.156-8.203-41.591-32.769-41.591-52.572zm76.984 64.973v6.536c0 13.837-9.924 25.095-22.123 25.095-12.214 0-22.15-11.258-22.15-25.095v-6.371c1.209.531 2.424 1.038 3.651 1.492 6.559 2.451 12.32 3.593 18.131 3.593 5.831 0 11.601-1.142 18.138-3.585 1.442-.534 2.87-1.135 4.286-1.774.025.035.043.075.067.109zm39.77 282.114c0 13.837-11.247 25.095-25.07 25.095h-4.96c-13.824 0-25.07-11.258-25.07-25.095v-8.06h55.101v8.06zm0-23.059h-55.101v-96.616h55.101zm74.354-189.997-59.354-7.106v-8.848c0-4.143-3.358-7.5-7.5-7.5s-7.5 3.357-7.5 7.5v15.504 33.048 45.784h-125.202v-78.832-15.504c0-4.143-3.358-7.5-7.5-7.5s-7.5 3.357-7.5 7.5v8.848l-59.382 7.107-5.016-40.964 55.045-21.546c.04-.016.079-.031.118-.048 8.236-3.387 9.923-3.368 19.301-3.377l31.093.001v3.412c0 22.108 16.666 40.095 37.15 40.095 20.469 0 37.123-17.986 37.123-40.095v-3.412l29.676-.001c9.397.006 11.093-.009 19.329 3.377.039.016.078.031.117.047l55.018 21.546z"/><path d="m352.724 228.13c1.077.539 2.221.794 3.348.794 2.751 0 5.4-1.52 6.714-4.147l.028-.057c1.853-3.705.337-8.182-3.368-10.034-3.706-1.854-8.224-.322-10.076 3.382-1.853 3.704-.351 8.209 3.354 10.062z"/><path d="m158.469 214.686c-3.706-1.854-8.224-.322-10.076 3.382-1.853 3.705-.351 8.21 3.354 10.063 1.077.539 2.221.794 3.348.794 2.751 0 5.4-1.52 6.714-4.147l.028-.057c1.852-3.706.337-8.183-3.368-10.035z"/><path d="m500.248 81.057c6.48 0 11.752-5.284 11.752-11.78v-50.026c0-6.479-5.272-11.751-11.752-11.751h-63.78c-6.153 0-11.208 4.756-11.703 10.783l-14.412-5.077c-3.167-1.127-6.608-.627-9.441 1.373-3.259 2.299-5.364 6.402-5.364 10.454v38.462c0 4.057 2.102 8.16 5.354 10.455 1.843 1.3 3.942 1.967 6.051 1.967 1.136 0 2.275-.194 3.377-.586l14.435-5.085c.495 6.043 5.549 10.811 11.703 10.811h34.396v287.73h-34.396c-6.153 0-11.208 4.756-11.703 10.784l-14.409-5.076c-3.167-1.129-6.608-.63-9.443 1.37-3.259 2.299-5.365 6.403-5.365 10.456v38.461c0 4.037 2.088 8.134 5.32 10.438 1.847 1.316 3.957 1.996 6.097 1.996 1.125 0 2.259-.188 3.366-.569l14.435-5.085c.495 6.027 5.55 10.782 11.703 10.782h34.396v31.228h-15.63c-4.142 0-7.5 3.357-7.5 7.5s3.358 7.5 7.5 7.5h46.261c4.142 0 7.5-3.357 7.5-7.5s-3.358-7.5-7.5-7.5h-15.631v-31.228h14.384c6.48 0 11.752-5.271 11.752-11.751v-50.054c0-6.48-5.272-11.752-11.752-11.752h-14.384v-287.73zm-75.532-26.698-14.168 4.991v-30.172l14.168 4.991zm0 361.316-14.168 4.991v-30.2l14.168 4.991zm72.284-31.888v43.557h-57.284v-43.557zm-57.284-317.73v-43.557h57.284v43.557z"/></g></svg>